<?xml version="1.0" standalone="no"?>
<!DOCTYPE svg PUBLIC "-//W3C//DTD SVG 20010904//EN"
 "http://www.w3.org/TR/2001/REC-SVG-20010904/DTD/svg10.dtd">
<svg version="1.0" xmlns="http://www.w3.org/2000/svg"
 width="300.000000pt" height="169.000000pt" viewBox="0 0 300.000000 169.000000"
 preserveAspectRatio="xMidYMid meet">
<metadata>
Created by potrace 1.10, written by Peter Selinger 2001-2011
</metadata>
<g transform="translate(0.000000,169.000000) scale(0.100000,-0.100000)"
fill="#000000" stroke="none">
<path d="M1 1565 l1 -125 41 -1 c23 -1 45 -1 50 0 4 0 7 -6 7 -15 0 -11 -5
-14 -17 -9 -10 4 -33 8 -50 10 -31 3 -33 1 -33 -30 l0 -32 69 5 c45 3 71 1 75
-7 5 -8 -15 -11 -68 -11 -64 0 -76 -3 -76 -16 0 -15 9 -16 63 -11 l64 6 11
-86 c6 -48 10 -88 8 -91 -2 -2 -35 -7 -73 -10 l-68 -7 -2 -64 -1 -63 26 6 c15
3 41 8 57 10 17 2 51 7 78 11 30 5 47 4 47 -3 0 -9 -33 -16 -167 -37 -28 -4
-43 -12 -43 -22 0 -9 6 -12 18 -9 9 3 53 10 97 16 44 6 89 13 100 16 16 4 17
3 4 -5 -12 -8 -186 -41 -214 -41 -3 0 -5 -7 -5 -15 0 -8 7 -15 16 -15 8 0 12
-4 9 -10 -3 -5 -2 -10 3 -10 13 0 23 -27 29 -75 2 -22 7 -47 10 -55 4 -8 7
-24 8 -35 1 -11 2 -30 3 -43 1 -13 5 -21 9 -19 7 4 9 -61 4 -128 -1 -16 -3
-17 -11 -5 -5 8 -5 17 0 20 5 3 5 25 0 50 -5 25 -16 90 -25 144 -9 58 -24 113
-35 130 l-20 31 0 -142 c0 -104 3 -143 13 -146 9 -4 9 -6 0 -6 -7 -1 -13 -5
-13 -11 0 -6 10 -5 25 2 28 13 27 42 -3 66 -9 6 -11 12 -5 12 14 0 36 -28 40
-49 1 -10 -11 -27 -27 -40 l-30 -22 0 -109 c0 -61 4 -110 8 -110 5 0 17 9 27
20 10 11 23 20 29 19 6 0 6 -3 -1 -6 -7 -2 -13 -9 -13 -14 0 -4 7 -6 15 -3 8
4 15 1 15 -5 0 -6 -7 -12 -15 -12 -41 -4 -61 -17 -63 -45 -2 -23 1 -25 23 -20
32 8 32 -2 0 -14 -16 -6 -25 -17 -25 -31 0 -21 1 -21 26 -4 14 9 28 14 31 11
3 -3 15 0 27 7 11 6 26 12 31 13 21 2 71 15 85 23 8 4 23 7 33 5 9 -1 17 3 17
9 0 5 3 7 7 4 3 -4 12 -2 20 4 7 7 21 13 31 14 9 1 30 7 46 14 16 6 36 9 45 6
8 -3 12 -3 8 1 -14 15 427 135 597 164 132 22 361 39 453 34 32 -2 101 -5 153
-8 181 -10 386 -51 585 -119 55 -19 257 -94 449 -166 312 -118 381 -140 350
-112 -9 9 -336 131 -672 252 -189 68 -409 129 -464 129 -29 0 -33 10 -19 43 6
16 9 17 18 5 6 -7 11 -17 10 -23 -1 -5 16 -13 38 -16 22 -4 67 -14 99 -23 47
-12 62 -13 69 -3 6 8 7 7 4 -4 -4 -13 4 -18 36 -24 65 -12 70 -13 92 -23 33
-16 139 -51 164 -55 12 -2 27 -10 32 -18 5 -8 9 -11 9 -7 0 4 24 -2 53 -14 28
-11 77 -29 107 -40 30 -11 64 -23 75 -27 36 -14 89 -32 125 -43 19 -5 40 -14
46 -19 12 -9 135 -57 169 -66 20 -4 20 -4 0 8 -19 12 -55 48 -55 56 0 13 30
-1 35 -17 3 -11 13 -20 21 -20 16 0 19 26 4 35 -7 4 -6 14 1 27 10 19 8 25
-15 43 -14 11 -26 25 -26 30 0 4 11 -2 25 -15 l25 -23 0 69 c0 42 -5 77 -14
89 -7 11 -16 39 -20 62 -5 35 -3 46 14 63 22 22 27 50 8 51 -7 0 -22 3 -33 5
-11 3 -36 6 -55 7 -20 1 -49 12 -65 24 -28 21 -29 22 -7 23 12 0 21 3 20 8 -2
12 33 85 38 79 3 -3 -4 -25 -15 -50 -27 -60 -21 -73 34 -72 55 0 60 18 8 25
-25 3 -34 8 -25 13 7 5 19 25 27 44 9 20 18 33 21 30 4 -3 3 -14 -1 -24 -17
-38 -15 -53 5 -53 12 0 24 10 30 24 5 13 15 26 22 29 10 3 11 8 1 26 -16 25
-16 34 -2 26 7 -5 9 16 8 64 -1 39 -6 71 -10 71 -13 0 -21 -39 -15 -78 9 -52
-3 -64 -52 -59 -46 6 -62 13 -62 29 0 7 6 6 15 -2 21 -17 45 3 38 33 -4 18 -3
19 6 7 9 -13 11 -13 11 2 0 9 5 20 12 24 8 5 9 0 6 -14 -4 -12 -2 -22 4 -22 5
0 8 15 6 32 -2 23 -9 34 -22 36 -13 3 -17 0 -13 -11 4 -10 -2 -17 -16 -21 -12
-3 -18 -8 -14 -12 4 -4 -2 -14 -14 -22 -24 -16 -25 -16 -34 20 -7 26 -4 29 41
49 27 11 64 21 82 22 35 1 39 6 20 26 -10 11 -10 13 0 7 8 -5 12 0 12 16 0 18
-2 20 -10 8 -6 -10 -10 -11 -10 -2 0 25 -20 11 -21 -15 l-1 -28 -7 28 c-6 27
-9 29 -76 34 -38 3 -79 5 -90 4 -14 0 -16 2 -7 8 18 11 -12 36 -33 27 -9 -3
-15 0 -15 9 0 8 -4 15 -10 15 -5 0 -7 -7 -3 -16 5 -13 1 -15 -23 -11 -16 3
-50 9 -76 12 -49 6 -58 15 -35 33 8 7 32 7 72 0 33 -5 70 -6 82 -3 18 4 25 0
33 -19 12 -31 32 -42 98 -49 42 -5 52 -3 52 9 0 14 19 13 68 -2 6 -2 12 1 12
6 0 6 -4 10 -10 10 -6 0 -6 9 0 24 8 21 5 24 -22 30 -17 3 -39 6 -50 6 -19 0
-20 -1 -4 -25 18 -27 7 -35 -14 -10 -10 12 -6 58 21 232 18 120 37 224 42 231
18 23 28 12 13 -15 -12 -22 -66 -342 -66 -389 0 -7 20 -14 45 -16 l45 -3 0
287 -1 287 -128 0 -129 0 1 -32 c0 -65 -2 -72 -15 -58 -9 9 -9 15 -3 17 6 3 9
20 7 40 l-4 36 -57 -6 c-31 -3 -86 -5 -123 -5 -64 -1 -68 -2 -68 -24 0 -28
-24 -52 -60 -60 l-25 -6 23 19 c12 10 26 20 31 22 5 2 11 14 13 28 3 23 -1 25
-36 28 -21 2 -36 -1 -33 -5 3 -5 2 -15 -3 -22 -10 -17 -44 -6 -37 12 4 10 -7
14 -39 16 -32 1 -46 -3 -50 -14 -4 -8 -17 -15 -31 -15 -19 0 -24 4 -19 16 5
12 0 15 -21 12 -58 -7 -60 -88 -3 -88 20 0 22 -2 10 -10 -11 -7 -5 -10 23 -10
24 0 36 4 35 13 -2 8 11 12 45 11 43 -1 47 0 41 19 -6 18 -3 19 24 14 27 -5
32 -3 41 21 l9 27 1 -26 c1 -27 -20 -54 -32 -42 -4 3 -7 1 -7 -5 0 -7 -18 -15
-40 -18 -22 -4 -43 -11 -46 -15 -3 -5 -33 -9 -67 -10 -119 -2 -145 -29 -30
-31 45 -1 57 -5 61 -20 5 -20 40 -25 39 -5 -1 38 4 67 13 67 6 0 10 -5 10 -10
0 -6 9 -19 20 -30 22 -22 17 -50 -10 -50 -12 0 -17 -8 -18 -27 -2 -79 -26
-263 -34 -263 -5 0 -7 13 -3 29 3 16 8 75 9 131 2 55 6 104 10 107 18 18 -4
23 -109 23 l-115 0 -1 -77 c-1 -43 -5 -107 -9 -143 -7 -51 -8 -41 -4 50 2 63
4 131 4 152 0 31 3 35 20 31 11 -3 28 1 37 8 12 10 14 10 9 2 -4 -7 -3 -13 2
-13 17 0 21 28 6 34 -27 10 -44 7 -44 -9 0 -17 -16 -20 -25 -6 -8 14 22 40 53
47 67 15 68 15 39 32 -19 12 -27 25 -27 44 0 28 0 28 -70 28 l-69 0 1 -57 c1
-32 -2 -68 -6 -80 -6 -19 -3 -22 31 -26 l38 -4 -38 -1 c-24 -1 -37 -7 -36 -14
5 -40 -3 -128 -11 -128 -6 0 -8 12 -6 28 2 15 7 89 11 165 l7 137 -35 0 c-19
0 -38 -6 -40 -12 -4 -10 -6 -10 -6 0 -1 19 -107 16 -115 -4 -3 -9 -6 -70 -7
-137 0 -67 -4 -187 -8 -267 -5 -85 -5 -152 0 -162 7 -13 2 -23 -18 -43 -19
-17 -23 -25 -13 -25 10 0 11 -3 4 -8 -6 -4 -13 -15 -17 -24 -8 -22 -47 -24
-47 -3 0 8 -9 15 -20 15 -11 0 -20 5 -20 11 0 6 9 8 20 4 11 -4 20 -2 20 4 0
6 -6 11 -14 11 -22 0 -24 30 -5 79 20 54 46 72 67 45 13 -17 13 -14 7 31 -8
61 -16 75 -26 49 -7 -17 -8 -18 -8 -1 -1 13 -7 17 -23 15 -28 -4 -56 -71 -32
-76 10 -2 7 -11 -11 -30 -14 -15 -25 -34 -25 -44 0 -9 -3 -23 -6 -32 -4 -11 0
-16 13 -16 16 0 18 -6 15 -34 -3 -27 0 -35 15 -39 12 -4 9 -5 -7 -4 -20 2 -24
7 -22 26 4 25 -32 68 -43 51 -3 -6 -17 -10 -31 -10 -14 0 -23 -4 -20 -9 9 -15
-18 -61 -36 -61 -13 0 -18 8 -18 26 0 21 4 25 20 21 12 -3 20 0 20 7 0 7 -10
12 -22 10 -13 -1 -26 -3 -30 -3 -5 -1 -8 -20 -8 -42 l0 -41 58 7 c66 8 75 12
65 28 -11 18 -14 47 -5 47 4 0 13 -14 19 -30 10 -26 9 -32 -10 -45 -12 -8 -38
-15 -58 -15 -21 0 -39 -5 -41 -11 -2 -6 -16 1 -31 15 -24 22 -26 29 -17 47 9
15 8 24 -1 35 -6 8 -8 14 -4 14 4 0 3 6 -3 13 -6 6 -13 32 -17 57 -3 25 -10
62 -15 82 -4 21 -4 36 0 33 5 -3 10 12 12 32 2 21 4 3 5 -40 1 -73 6 -97 18
-86 2 3 6 26 8 52 3 35 11 54 31 72 36 33 33 45 -14 45 -29 0 -40 4 -40 15 0
11 11 15 41 15 23 0 38 -4 34 -10 -3 -5 17 -26 46 -46 l51 -37 -4 -69 c-3 -37
-1 -68 4 -68 4 0 8 11 8 25 0 14 5 24 12 22 8 -1 15 18 19 51 8 62 30 85 68
71 13 -5 24 -8 25 -7 0 2 7 14 14 27 9 15 10 27 4 33 -6 6 -6 24 -1 46 5 25 4
39 -4 44 -9 6 -9 8 1 8 7 0 12 12 11 28 0 24 -1 25 -9 7 -8 -19 -9 -19 -9 3
-1 12 3 22 9 22 5 0 9 39 8 95 l-2 95 -113 0 -113 0 -1 -37 c-1 -21 -5 -51
-10 -68 -6 -21 -7 -10 -4 38 l4 67 -43 0 -43 0 1 -84 c1 -47 4 -88 8 -91 10
-10 28 4 38 29 l9 21 0 -22 c1 -13 6 -23 12 -23 6 0 9 -6 6 -14 -8 -19 14 -66
31 -66 6 0 12 -4 12 -10 0 -5 -7 -10 -15 -10 -10 0 -16 -11 -17 -32 -1 -18 -4
-6 -7 27 l-6 60 -37 -3 c-36 -3 -38 -2 -38 27 0 16 -4 32 -9 36 -5 3 -7 38 -4
79 l6 74 -652 1 c-429 1 -650 -3 -646 -9 3 -6 -1 -10 -10 -10 -9 0 -13 5 -10
10 4 6 -12 10 -40 10 l-46 0 2 -125z m1170 85 c27 0 34 4 31 15 -2 5 5 2 16
-8 10 -9 24 -17 30 -17 7 0 12 -7 12 -15 0 -8 4 -15 9 -15 6 0 8 -10 6 -22 -5
-25 -35 -60 -35 -40 0 7 5 12 10 12 19 0 10 49 -12 64 -12 9 -25 16 -28 16 -7
0 -5 -54 3 -66 8 -14 -9 -38 -22 -30 -6 4 -9 26 -8 49 l2 43 -38 -2 c-30 -2
-37 1 -33 13 3 8 6 19 6 25 0 5 7 2 16 -6 8 -9 24 -16 35 -16z m672 23 c-18
-2 -33 -8 -33 -13 0 -5 15 -11 33 -13 31 -4 31 -4 -5 -5 -32 -2 -38 1 -38 18
0 17 6 20 38 18 36 -1 36 -1 5 -5z m347 -18 c0 -14 -4 -25 -10 -25 -11 0 -14
33 -3 43 11 11 13 8 13 -18z m120 -5 c0 -16 -4 -30 -10 -30 -5 0 -8 13 -7 30
3 39 17 39 17 0z m375 21 c3 -5 1 -12 -5 -16 -5 -3 -10 1 -10 9 0 18 6 21 15
7z m-1215 -17 c0 -8 -4 -12 -10 -9 -5 3 -10 10 -10 16 0 5 5 9 10 9 6 0 10 -7
10 -16z m-420 -14 c-25 -4 -36 -10 -37 -25 -4 -29 8 -79 16 -68 3 5 16 4 31
-4 14 -7 21 -13 15 -14 -50 -7 -57 -5 -67 20 -15 37 -12 84 6 97 9 6 28 9 44
5 26 -5 26 -6 -8 -11z m1200 -10 c0 -13 -7 -20 -20 -20 -19 0 -27 20 -13 33
13 14 33 6 33 -13z m-1141 -23 c-4 -60 -1 -67 36 -67 19 0 35 -5 35 -11 0 -5
-4 -8 -9 -4 -5 3 -12 1 -16 -4 -7 -12 -34 -3 -53 16 -7 7 -21 13 -30 13 -15 0
-15 1 0 16 13 14 14 20 5 36 -10 15 -9 20 3 28 19 12 32 2 29 -23z m1567 6
c-10 -10 -19 5 -10 18 6 11 8 11 12 0 2 -7 1 -15 -2 -18z m-1204 -35 c-9 -9
-12 -4 -11 23 0 32 1 33 11 11 8 -17 8 -26 0 -34z m398 40 c0 -4 -16 -8 -35
-8 -46 0 -46 15 0 16 19 0 35 -3 35 -8z m-1537 -23 c15 -4 27 -14 27 -22 0 -8
5 -11 10 -8 6 3 10 -1 10 -9 0 -9 4 -16 10 -16 5 0 7 -7 3 -16 -5 -14 -8 -12
-19 8 -17 32 -64 52 -103 43 -68 -15 -96 -111 -47 -160 13 -13 22 -25 21 -27
-2 -2 18 -1 43 2 l47 5 -42 3 c-51 4 -84 38 -81 86 l1 31 4 -32 c7 -51 29 -48
24 3 -2 29 -7 42 -15 38 -6 -3 0 4 13 15 14 13 37 21 57 21 28 0 36 -5 45 -27
5 -15 8 -36 5 -48 -3 -11 -1 -27 4 -35 8 -12 10 -13 10 -1 0 8 3 11 7 8 3 -4
-4 -18 -17 -32 -13 -14 -19 -25 -13 -25 17 0 45 38 53 72 6 25 8 27 9 10 1
-16 5 -21 14 -16 6 4 2 -4 -10 -18 -13 -13 -23 -30 -23 -36 0 -7 -4 -12 -9
-12 -5 0 -17 -7 -26 -16 -27 -27 -125 -18 -125 12 0 8 -6 14 -14 14 -16 0 -28
24 -32 64 -1 21 1 25 8 15 7 -10 8 -4 4 19 -4 26 -2 32 12 32 15 0 15 2 2 11
-13 9 -13 10 1 6 9 -3 22 3 30 14 7 10 19 19 26 19 7 0 13 4 13 10 0 10 13 9
63 -5z m1537 -5 c0 -5 -16 -10 -35 -10 -19 0 -35 5 -35 10 0 6 16 10 35 10 19
0 35 -4 35 -10z m-1695 -10 c-3 -5 -12 -10 -18 -10 -7 0 -6 4 3 10 19 12 23
12 15 0z m2541 -5 c41 -17 69 -72 59 -114 -20 -80 -118 -109 -176 -52 -49 50
-38 123 24 161 38 24 47 24 93 5z m-633 -2 c-7 -2 -21 -2 -30 0 -10 3 -4 5 12
5 17 0 24 -2 18 -5z m274 1 c-3 -3 -12 -4 -19 -1 -8 3 -5 6 6 6 11 1 17 -2 13
-5z m520 0 c-3 -3 -12 -4 -19 -1 -8 3 -5 6 6 6 11 1 17 -2 13 -5z m-1007 -14
c0 -5 -18 -10 -41 -10 -24 0 -38 4 -34 10 3 6 22 10 41 10 19 0 34 -4 34 -10z
m-1400 -31 c0 6 5 11 11 11 5 0 7 -5 3 -11 -5 -8 30 -10 125 -6 107 4 133 2
143 -10 10 -12 9 -20 -3 -41 -18 -32 -46 -40 -63 -17 -11 15 -13 15 -25 1 -17
-21 -38 -20 -49 1 -9 16 -11 16 -27 0 -20 -21 -29 -21 -45 -2 -12 14 -15 14
-30 0 -22 -20 -33 -19 -53 3 -20 22 -19 86 1 70 8 -7 12 -7 12 1z m315 -20
c-4 -26 -1 -30 14 -26 14 3 17 0 14 -14 -3 -11 -8 -19 -12 -19 -13 0 -28 36
-25 60 3 30 3 30 8 30 3 0 3 -14 1 -31z m1082 24 c-10 -9 -68 -10 -74 -1 -2 5
15 8 38 8 23 0 39 -3 36 -7z m553 -4 c0 -5 -4 -7 -10 -4 -5 3 -10 -1 -10 -9 0
-23 27 -19 33 5 5 17 12 20 52 18 25 -2 49 -7 52 -12 3 -6 1 -7 -6 -3 -19 12
-25 -23 -7 -43 14 -15 15 -27 8 -67 l-8 -49 -5 37 c-3 20 -1 34 3 32 4 -3 8 4
8 15 0 23 -15 28 -24 9 -3 -7 -4 -4 -3 7 2 18 -6 21 -73 26 -41 3 -67 6 -57 7
9 1 17 8 17 16 0 8 -8 17 -17 19 -10 3 -3 5 15 6 17 0 32 -4 32 -10z m-2340
-19 c-14 -9 -7 -14 13 -11 5 1 6 -3 2 -9 -5 -8 -11 -7 -21 1 -11 9 -12 15 -3
26 7 7 14 11 18 8 3 -3 -1 -10 -9 -15z m288 -5 c-3 -3 -9 2 -12 12 -6 14 -5
15 5 6 7 -7 10 -15 7 -18z m453 8 c13 -16 12 -17 -3 -4 -10 7 -18 15 -18 17 0
8 8 3 21 -13z m839 -4 c0 -5 5 -7 10 -4 6 3 10 2 10 -3 0 -19 -14 -21 -32 -5
-11 9 -18 11 -18 5 0 -7 -8 -12 -19 -12 -24 0 -49 -29 -34 -38 6 -4 13 -16 16
-27 4 -16 5 -14 6 7 0 14 -5 29 -11 31 -7 3 -3 6 8 6 17 1 20 -4 16 -24 -2
-15 0 -25 7 -25 6 0 11 5 11 10 0 6 4 10 8 10 5 0 9 -7 9 -15 0 -9 -9 -15 -22
-15 -11 0 -26 -5 -33 -12 -9 -9 -12 -9 -12 2 0 7 -7 21 -16 31 -23 25 -9 54
34 72 45 18 62 20 62 6z m-1235 -9 c3 -5 1 -10 -4 -10 -6 0 -11 5 -11 10 0 6
2 10 4 10 3 0 8 -4 11 -10z m1428 3 c-13 -2 -33 -2 -45 0 -13 2 -3 4 22 4 25
0 35 -2 23 -4z m691 -5 c-3 -4 -9 -8 -15 -8 -5 0 -9 4 -9 8 0 5 7 9 15 9 8 0
12 -4 9 -9z m353 -5 c-20 -2 -52 -2 -70 0 -17 2 0 4 38 4 39 0 53 -2 32 -4z
m-1037 -15 c0 -5 -16 -8 -35 -8 -19 0 -35 4 -35 9 0 5 16 9 35 8 19 -1 35 -5
35 -9z m-612 -15 c8 -8 15 -27 16 -43 0 -17 3 -30 7 -30 3 0 6 -7 6 -15 0 -8
-4 -15 -8 -15 -4 0 -5 -17 -3 -37 3 -21 5 -45 5 -53 -1 -8 -1 -41 -1 -72 0
-31 -4 -59 -10 -63 -14 -9 -13 -45 2 -45 23 0 48 -33 47 -64 -1 -30 -1 -30 -8
-6 -5 18 -13 24 -30 23 -13 -2 -20 1 -16 7 3 6 13 10 21 10 8 0 12 5 9 10 -8
14 -55 13 -55 -1 0 -8 -5 -8 -15 1 -11 9 -12 16 -4 26 8 9 4 36 -16 101 -14
48 -29 96 -32 106 -4 16 -1 18 16 12 12 -3 21 -2 21 4 0 9 -167 6 -197 -4 -9
-3 -13 10 -13 44 0 45 2 48 23 44 12 -2 61 0 110 4 60 6 86 6 84 -2 -2 -6 -44
-11 -98 -13 -52 -2 -98 -8 -104 -14 -7 -7 23 -9 98 -5 l107 5 0 -77 c1 -86 23
-188 35 -158 8 20 1 299 -8 314 -4 6 -38 8 -82 5 -41 -2 -75 -1 -75 4 0 16
153 13 168 -3z m434 -3 c18 -11 26 -20 17 -20 -11 0 -14 -7 -11 -29 3 -21 -1
-32 -14 -38 -29 -13 -67 -10 -72 6 -3 10 0 12 12 8 9 -4 16 -1 16 5 0 7 5 6
15 -2 9 -7 18 -10 21 -7 9 9 -5 77 -16 77 -6 0 -10 5 -10 10 0 14 5 13 42 -10z
m449 -30 c5 0 7 12 5 26 -3 15 -2 23 2 19 4 -3 8 -11 8 -16 1 -5 2 -13 3 -19
0 -5 5 -10 10 -10 5 0 7 10 5 23 -4 20 -4 21 5 2 9 -20 10 -20 10 1 1 16 7 22
26 22 27 0 50 -21 40 -38 -3 -5 -2 -10 4 -10 5 0 12 9 14 20 4 17 4 17 3 -2
-1 -22 -5 -23 -76 -23 -73 0 -75 1 -76 25 -1 22 0 22 3 3 2 -13 9 -23 14 -23z
m213 43 c4 -5 13 -8 19 -8 23 0 11 -28 -13 -32 -21 -2 -25 1 -25 22 0 26 6 31
19 18z m114 -5 c15 -15 16 -32 2 -23 -5 3 -10 4 -10 1 0 -17 22 -13 28 5 l9
23 5 -22 c4 -15 1 -22 -8 -23 -61 -3 -88 -1 -92 9 -2 7 1 12 8 12 6 0 8 -5 4
-12 -4 -7 -3 -8 5 -4 6 4 8 12 5 18 -4 6 0 14 7 19 18 12 23 11 37 -3z m-1611
-4 c-3 -4 -1 -16 5 -28 l11 -21 -20 20 c-21 20 -21 35 -1 35 6 0 8 -3 5 -6z
m567 -44 c4 -25 3 -31 -4 -20 -5 8 -10 26 -10 39 0 32 6 24 14 -19z m446 30
c0 -5 -16 -10 -35 -10 -19 0 -35 5 -35 10 0 6 16 10 35 10 19 0 35 -4 35 -10z
m993 3 c-7 -2 -21 -2 -30 0 -10 3 -4 5 12 5 17 0 24 -2 18 -5z m-2166 -55 c0
-25 -2 -32 -4 -15 -6 37 -33 36 -33 -3 0 -16 6 -33 13 -37 6 -4 12 -15 13 -23
1 -8 4 -31 7 -50 l7 -35 -16 35 c-9 19 -17 40 -18 46 -1 6 -9 23 -19 37 -19
29 -14 53 17 79 28 22 33 17 33 -34z m226 25 c-5 -12 -7 -12 -14 -1 -13 20
-11 28 5 22 8 -3 12 -12 9 -21z m295 12 c-10 -8 -218 -13 -218 -5 0 5 46 11
103 12 92 3 124 1 115 -7z m-395 -9 c27 -13 20 -27 -9 -16 -27 11 -48 5 -39
-11 3 -5 -1 -6 -9 -3 -8 3 -12 13 -9 22 4 15 3 15 -6 2 -14 -20 -14 -26 3 -43
13 -13 12 -17 -4 -34 -14 -15 -16 -23 -7 -32 8 -8 6 -15 -9 -25 -17 -13 -19
-12 -25 12 -3 15 -3 38 -1 52 2 14 5 33 6 43 5 39 58 55 109 33z m168 -228 c3
-74 8 -113 13 -107 6 5 14 9 19 9 5 0 2 -7 -7 -15 -8 -8 -19 -15 -25 -15 -19
0 -12 -22 9 -27 11 -3 20 -9 20 -15 0 -5 9 -19 21 -31 11 -12 23 -34 26 -49 3
-16 10 -28 16 -28 5 0 15 -8 22 -17 11 -15 15 -15 29 -4 9 7 17 25 17 40 l2
26 4 -25 c3 -14 9 -27 13 -30 5 -3 11 -17 13 -30 3 -14 12 -43 21 -65 20 -48
10 -75 -35 -92 -30 -12 -39 -3 -15 16 7 6 11 22 9 34 -3 13 2 31 10 39 11 11
13 18 5 26 -5 5 -14 25 -18 44 l-8 33 -2 -30 c-1 -16 -3 -38 -5 -47 -2 -10 1
-18 6 -18 6 0 7 -5 4 -10 -9 -15 -25 -2 -25 19 0 10 -18 37 -40 59 -22 22 -40
46 -40 54 0 33 -39 52 -113 55 l-72 4 5 -96 c3 -53 1 -96 -4 -98 -5 -2 -10
-21 -11 -43 -2 -21 -3 -44 -4 -51 -1 -6 -10 -15 -21 -18 -21 -7 -27 -39 -10
-50 6 -3 10 1 10 9 0 10 9 16 25 16 50 0 23 -22 -43 -36 -18 -3 -79 29 -64 34
7 2 19 -1 26 -7 15 -13 26 -5 26 20 0 10 8 20 19 24 14 4 20 19 25 63 3 31 9
67 12 80 6 20 3 22 -28 22 -21 0 -40 -7 -51 -20 -21 -25 -39 -25 -59 -2 -23
27 -28 50 -12 56 32 12 6 75 -28 68 -4 -1 -4 6 -1 15 5 12 3 14 -8 8 -8 -5 -3
5 11 22 25 31 49 42 104 49 16 2 40 15 53 29 42 41 92 45 127 9 15 -14 16 -13
16 10 0 14 -6 26 -12 27 -9 0 -10 2 -1 5 10 5 9 69 -2 101 -2 7 -1 14 3 17 7
4 7 37 0 96 0 8 0 31 2 50 4 53 17 -72 21 -212z m479 220 c0 -4 -7 -8 -15 -8
-8 0 -15 4 -15 8 0 5 7 9 15 9 8 0 15 -4 15 -9z m400 4 c0 -5 -13 -7 -30 -4
-17 2 -30 0 -30 -6 0 -6 15 -13 33 -15 31 -4 31 -4 -5 -5 -32 -2 -38 1 -38 18
0 16 7 20 35 20 19 0 35 -4 35 -8z m-1240 -19 c0 -9 -3 -13 -6 -10 -4 3 -16 2
-28 -4 -17 -8 -16 -6 4 10 30 25 30 25 30 4z m327 1 c-3 -3 -12 -4 -19 -1 -8
3 -5 6 6 6 11 1 17 -2 13 -5z m-902 -22 c-3 -3 -11 0 -18 7 -9 10 -8 11 6 5
10 -3 15 -9 12 -12z m1415 8 c0 -5 -7 -7 -15 -4 -8 4 -15 8 -15 10 0 2 7 4 15
4 8 0 15 -4 15 -10z m-1003 -7 c-4 -3 -2 -12 4 -20 15 -17 2 -17 -16 1 -14 14
-10 26 8 26 6 0 7 -3 4 -7z m418 -3 c17 -7 14 -9 -13 -9 -20 -1 -31 3 -27 9 7
12 13 12 40 0z m1680 0 c3 -5 1 -10 -4 -10 -6 0 -11 5 -11 10 0 6 2 10 4 10 3
0 8 -4 11 -10z m-1741 -27 c-3 -16 -7 -33 -9 -39 -4 -13 -55 -16 -55 -3 0 10
35 30 42 24 3 -3 5 2 5 10 0 8 -4 15 -9 15 -4 0 -8 5 -8 10 0 6 9 10 20 10 17
0 19 -5 14 -27z m1046 17 c0 -5 -16 -10 -35 -10 -19 0 -35 5 -35 10 0 6 16 10
35 10 19 0 35 -4 35 -10z m-930 -4 c0 -3 -4 -8 -10 -11 -5 -3 -10 -1 -10 4 0
6 5 11 10 11 6 0 10 -2 10 -4z m1780 -5 c0 -5 -20 -6 -45 -3 -30 3 -45 1 -45
-7 0 -6 18 -11 44 -11 l44 0 -3 -52 c-1 -29 -5 -62 -8 -73 -18 -66 -18 -73 5
-78 13 -2 3 -4 -22 -4 -25 -1 -37 1 -27 4 26 7 20 23 -9 23 -14 0 -23 -3 -21
-7 3 -5 -1 -14 -9 -20 -23 -22 -24 -10 -10 92 11 80 16 95 27 95 7 0 9 -12 6
-32 -21 -122 -21 -118 6 -118 22 0 25 5 34 73 6 39 8 75 6 80 -2 4 -17 7 -33
7 -30 0 -45 13 -35 30 8 12 95 13 95 1z m128 2 c-10 -2 -26 -2 -35 0 -10 3 -2
5 17 5 19 0 27 -2 18 -5z m-1991 -43 c-1 -42 -10 -52 -21 -23 -4 9 -2 20 5 23
6 4 10 10 10 14 -2 15 -1 26 3 26 3 0 4 -18 3 -40z m1708 31 c-27 -6 -31 -10
-36 -56 l-6 -50 -1 42 c-3 60 5 73 42 72 l31 -1 -30 -7z m-695 -12 c0 -6 -9
-8 -20 -4 -11 3 -25 3 -32 -2 -9 -5 -1 -10 22 -14 l35 -6 -37 -2 c-32 -1 -38
2 -38 19 0 16 7 20 35 20 19 0 35 -5 35 -11z m115 -75 c-2 -69 -6 -88 -21
-100 -11 -9 -14 -13 -7 -10 6 4 14 2 17 -3 5 -8 -38 -21 -71 -21 -23 0 -5 19
33 35 l34 14 0 85 c0 48 4 86 9 86 5 0 8 -38 6 -86z m-1338 25 c22 -24 23 -27
7 -40 -16 -12 -17 -12 -11 4 3 9 3 17 -1 17 -8 0 -32 49 -31 64 0 6 3 4 6 -4
3 -8 16 -27 30 -41z m2213 44 c0 -5 -16 -8 -35 -8 -19 0 -35 3 -35 8 0 4 16 7
35 7 19 0 35 -3 35 -7z m53 -10 c-7 -2 -21 -2 -30 0 -10 3 -4 5 12 5 17 0 24
-2 18 -5z m-1744 -114 c18 -55 31 -109 28 -120 -3 -10 0 -19 6 -19 6 0 8 -2 5
-5 -13 -13 -33 8 -35 37 -1 17 -4 32 -6 34 -2 2 -38 -2 -80 -9 l-77 -13 0 42
0 42 65 7 c36 4 68 11 71 16 6 11 -24 11 -88 0 -35 -6 -48 -5 -48 4 0 6 8 12
18 12 71 -1 112 5 112 14 0 8 -21 10 -72 4 -40 -3 -69 -3 -65 2 9 9 13 9 80
11 28 1 47 7 47 13 0 8 -19 10 -65 6 -37 -4 -65 -2 -65 3 0 5 26 11 58 13 31
2 62 4 67 5 6 1 26 -43 44 -99z m696 81 c4 -6 -8 -10 -29 -10 -20 0 -36 5 -36
10 0 6 13 10 29 10 17 0 33 -4 36 -10z m-1255 -10 c0 -5 -7 -10 -16 -10 -8 0
-12 5 -9 10 3 6 10 10 16 10 5 0 9 -4 9 -10z m189 -64 c-9 -8 -10 -7 -5 7 3
10 7 31 8 45 1 22 2 21 5 -7 3 -19 -1 -38 -8 -45z m656 64 c-3 -5 -12 -10 -18
-10 -7 0 -6 4 3 10 19 12 23 12 15 0z m415 -20 c0 -5 -13 -7 -30 -3 -18 3 -30
1 -30 -5 0 -6 15 -13 33 -15 28 -3 27 -4 -10 -5 -37 -2 -41 0 -36 18 4 15 14
20 39 20 19 0 34 -4 34 -10z m-1080 -4 c0 -3 -4 -8 -10 -11 -5 -3 -10 -1 -10
4 0 6 5 11 10 11 6 0 10 -2 10 -4z m50 -16 c-8 -5 -17 -7 -19 -4 -3 3 1 9 9
14 8 5 17 7 19 4 3 -3 -1 -9 -9 -14z m1947 -12 c-3 -7 -5 -2 -5 12 0 14 2 19
5 13 2 -7 2 -19 0 -25z m-1870 0 c-3 -8 -6 -5 -6 6 -1 11 2 17 5 13 3 -3 4
-12 1 -19z m-667 2 c0 -5 -4 -10 -10 -10 -5 0 -10 5 -10 10 0 6 5 10 10 10 6
0 10 -4 10 -10z m240 6 c0 -3 -4 -8 -10 -11 -5 -3 -10 -1 -10 4 0 6 5 11 10
11 6 0 10 -2 10 -4z m386 -15 c-3 -5 -17 -11 -32 -14 -29 -5 -20 9 11 16 11 3
21 5 23 6 2 0 1 -3 -2 -8z m854 -2 c0 -5 -4 -7 -10 -4 -5 3 -18 1 -29 -5 -14
-7 -22 -7 -27 2 -4 7 -3 8 4 4 7 -4 12 -2 12 3 0 6 11 11 25 11 14 0 25 -5 25
-11z m786 -46 c-5 -11 -16 -14 -49 -9 -23 3 -69 5 -101 5 -33 1 -56 4 -53 7 8
8 162 5 183 -3 10 -4 14 4 15 28 1 25 3 28 6 11 3 -13 2 -30 -1 -39z m-1821
37 c-3 -5 -12 -10 -18 -10 -7 0 -6 4 3 10 19 12 23 12 15 0z m1173 -22 c2 -16
-1 -28 -6 -28 -6 0 -8 9 -5 20 5 17 0 20 -31 20 -20 0 -36 5 -36 11 0 6 16 9
38 7 32 -3 37 -7 40 -30z m32 7 c0 -8 -4 -15 -10 -15 -5 0 -7 7 -4 15 4 8 8
15 10 15 2 0 4 -7 4 -15z m-1299 -18 c-10 -9 -11 -8 -5 6 3 10 9 15 12 12 3
-3 0 -11 -7 -18z m57 -8 c-7 -5 -17 -9 -23 -9 -5 0 -4 4 4 9 8 5 10 14 5 22
-6 11 -4 11 10 0 13 -11 14 -16 4 -22z m1639 17 c1 -1 -2 -15 -6 -32 l-9 -29
-1 28 c-1 26 -3 27 -60 27 -32 0 -80 3 -106 7 l-47 6 16 -30 c18 -35 32 -39
216 -48 63 -4 129 -11 145 -16 17 -5 51 -10 78 -11 37 -2 44 -5 32 -14 -14
-10 -31 -9 -132 11 -26 5 -33 3 -33 -9 0 -8 5 -18 10 -21 6 -3 10 -13 10 -21
0 -8 -4 -13 -9 -10 -5 3 -14 -1 -20 -8 -8 -10 -9 -16 -1 -21 6 -3 8 -11 5 -16
-4 -5 1 -9 9 -9 9 0 19 14 25 33 7 24 9 27 10 10 1 -15 9 -24 24 -27 106 -20
137 -29 153 -41 13 -10 0 -8 -44 5 -77 24 -118 25 -193 4 -44 -13 -64 -14 -86
-5 l-28 10 29 -2 c16 -1 31 4 33 11 5 14 -11 15 -53 3 -23 -7 -31 -5 -31 5 0
7 4 11 8 9 4 -3 20 -2 37 1 24 5 31 12 35 38 3 17 8 40 12 52 6 19 2 20 -82
24 -126 5 -264 4 -295 -3 -28 -6 -68 1 -68 12 0 6 46 9 158 10 29 0 52 5 52
10 0 6 -4 11 -9 11 -5 0 -14 14 -20 31 l-10 30 122 -7 c67 -4 123 -7 124 -8z
m506 -41 c53 -11 59 -14 20 -11 -33 3 -43 0 -46 -13 -3 -9 -5 4 -4 29 0 25 2
35 4 23 3 -13 14 -25 26 -28z m-230 28 c-7 -2 -19 -2 -25 0 -7 3 -2 5 12 5 14
0 19 -2 13 -5z m-911 -36 c-6 -12 -13 -29 -15 -37 -4 -13 -6 -12 -12 2 -4 10
1 27 12 41 21 30 31 26 15 -6z m1171 26 c-7 -2 -19 -2 -25 0 -7 3 -2 5 12 5
14 0 19 -2 13 -5z m-337 -39 c-11 -7 -22 -12 -25 -9 -2 3 4 12 15 19 10 8 21
12 24 9 3 -2 -4 -11 -14 -19z m-2316 -4 c-8 -5 -22 -9 -30 -9 -10 0 -8 3 5 9
27 12 43 12 25 0z m-35 -30 c8 0 19 -8 24 -18 9 -16 6 -18 -22 -13 -31 4 -31
5 -7 11 l25 6 -30 9 c-16 4 -37 7 -45 6 -8 -1 -4 5 10 13 22 13 25 13 28 0 2
-8 10 -14 17 -14z m402 24 c-3 -3 -12 -4 -19 -1 -8 3 -5 6 6 6 11 1 17 -2 13
-5z m1313 -6 c0 -4 -13 -8 -29 -8 -17 0 -32 4 -35 8 -2 4 11 8 30 8 19 0 34
-4 34 -8z m-720 -2 c0 -2 -7 -7 -16 -10 -8 -3 -12 -2 -9 4 6 10 25 14 25 6z
m-1073 -12 c-3 -3 -12 -4 -19 -1 -8 3 -5 6 6 6 11 1 17 -2 13 -5z m623 -8 c0
-11 -19 -15 -25 -6 -3 5 1 10 9 10 9 0 16 -2 16 -4z m-617 -33 c-7 -2 -21 -2
-30 0 -10 3 -5 5 12 5 17 0 24 -2 18 -5z m2180 0 c-7 -2 -19 -2 -25 0 -7 3 -2
5 12 5 14 0 19 -2 13 -5z m-1003 -13 c0 -5 -9 -10 -20 -10 -11 0 -20 5 -20 10
0 6 9 10 20 10 11 0 20 -4 20 -10z m-990 -32 c0 -5 -7 -3 -15 6 -8 8 -15 18
-15 22 0 3 7 1 15 -6 8 -7 15 -17 15 -22z m1297 0 c-3 -7 -5 -2 -5 12 0 14 2
19 5 13 2 -7 2 -19 0 -25z m580 20 c-28 -10 -28 -10 -25 -91 l3 -81 35 -9 c19
-4 42 -8 50 -9 20 -1 31 -19 24 -40 -3 -12 4 -18 28 -23 18 -4 38 -11 43 -15
6 -4 25 -7 43 -7 30 0 32 3 33 36 0 20 2 55 5 79 3 28 0 50 -8 60 -12 15 -11
16 5 3 9 -7 17 -20 17 -27 0 -8 6 -14 13 -15 10 0 10 -2 0 -6 -7 -2 -13 -11
-13 -19 0 -11 19 -14 88 -14 65 -1 82 -3 69 -11 -9 -6 -35 -11 -57 -11 -22 0
-40 -5 -40 -10 0 -6 13 -8 30 -4 19 3 29 2 25 -4 -3 -6 -17 -10 -30 -10 -13 0
-27 -4 -30 -10 -4 -6 9 -10 32 -10 27 0 34 -3 23 -9 -8 -6 -18 -7 -23 -4 -12
7 -87 -18 -87 -29 0 -13 -71 -9 -119 7 -43 16 -71 36 -71 52 0 5 -21 17 -46
28 -56 23 -65 40 -67 120 -1 71 12 95 52 94 l26 -1 -28 -10z m356 5 c-7 -2
-21 -2 -30 0 -10 3 -4 5 12 5 17 0 24 -2 18 -5z m156 -4 c9 -1 5 -4 -9 -8 -14
-4 -30 -4 -36 1 -6 4 -13 5 -16 2 -3 -3 -9 0 -14 7 -5 9 1 10 26 6 18 -4 40
-7 49 -8z m-1440 -15 c7 5 11 -2 11 -19 0 -23 3 -25 23 -20 22 7 22 7 2 -10
-11 -9 -14 -14 -7 -10 6 3 12 1 12 -4 0 -6 -11 -10 -24 -9 -19 2 -22 5 -14 15
7 9 7 13 -1 13 -7 0 -10 4 -7 9 3 5 -1 14 -9 21 -12 10 -15 10 -15 -3 0 -9 -4
-19 -10 -22 -5 -3 -8 1 -5 9 16 51 16 51 24 37 5 -7 14 -10 20 -7z m61 2 c0
-2 -7 -7 -16 -10 -8 -3 -12 -2 -9 4 6 10 25 14 25 6z m880 -41 c-5 -30 -3 -54
6 -71 12 -23 12 -25 -4 -22 -27 5 -31 138 -4 138 5 0 6 -20 2 -45z m550 41 c0
-3 -4 -8 -10 -11 -5 -3 -10 -1 -10 4 0 6 5 11 10 11 6 0 10 -2 10 -4z m40 -12
c0 -2 -7 -4 -15 -4 -8 0 -15 4 -15 10 0 5 7 7 15 4 8 -4 15 -8 15 -10z m-527
-24 c8 0 7 -4 -1 -12 -17 -17 -15 -31 3 -24 11 4 15 -2 15 -24 0 -34 -13 -39
-32 -11 -9 12 -12 36 -9 63 3 23 6 35 9 26 2 -10 9 -18 15 -18z m-913 -5 c0
-15 -6 -25 -14 -25 -11 0 -12 5 -3 25 15 31 17 31 17 0z m31 8 c0 -5 2 -18 3
-30 2 -13 -1 -23 -6 -23 -5 0 -8 8 -6 18 1 9 -1 23 -5 30 -5 7 -4 12 2 12 6 0
11 -3 12 -7z m458 -27 c25 -27 28 -103 3 -103 -13 0 -12 12 2 47 4 9 -2 25
-14 38 -29 31 -83 30 -116 -4 -25 -25 -27 -39 -8 -88 5 -12 -2 -18 -26 -22
-17 -4 -34 -14 -38 -23 -3 -9 -14 -25 -24 -35 -10 -11 -18 -26 -18 -33 0 -21
-3 -27 -17 -42 -15 -15 -13 -33 5 -39 7 -2 12 3 12 12 0 9 5 16 11 16 6 0 8
-9 4 -20 -4 -12 -2 -20 5 -20 20 0 23 30 5 50 -12 14 -14 20 -5 20 7 0 10 8 7
20 -4 17 0 20 29 20 27 0 34 4 34 20 0 14 -7 20 -22 21 -22 0 -22 1 -3 9 16 6
22 2 33 -21 11 -27 16 -29 67 -29 l56 0 -18 -24 c-14 -18 -20 -20 -28 -11 -5
7 -25 15 -42 19 -33 5 -33 5 -33 -36 0 -23 -3 -38 -7 -35 -3 4 -6 21 -5 37 0
24 -3 30 -16 28 -13 -2 -18 -16 -20 -56 -3 -55 -2 -58 29 -42 17 10 19 7 19
-28 l0 -39 -160 5 c-233 7 -472 -20 -701 -78 -46 -12 -208 -57 -359 -100 -382
-108 -348 -100 -354 -83 -3 8 -2 12 3 9 5 -3 33 1 62 10 30 8 64 15 77 15 13
-1 21 3 17 8 -3 5 0 13 6 17 8 4 9 3 5 -4 -4 -7 -1 -12 7 -12 8 0 18 7 21 16
3 8 10 13 15 9 12 -7 102 14 116 26 5 5 19 9 31 9 13 0 30 7 38 16 9 8 20 13
24 10 10 -6 41 2 182 44 58 17 111 32 118 33 7 2 18 9 24 15 7 7 19 12 28 11
10 0 9 -3 -5 -9 -27 -12 -1 -12 50 0 49 11 93 20 120 25 56 10 102 17 115 17
8 0 22 2 30 5 18 7 40 8 195 12 66 2 110 6 98 8 -13 2 -23 9 -23 15 0 6 7 7
18 3 9 -4 41 -10 69 -13 29 -2 50 -8 47 -13 -3 -5 3 -9 13 -9 35 0 63 12 63
27 0 10 -6 13 -16 9 -9 -3 -21 -3 -27 1 -7 4 -23 9 -37 11 -14 2 -33 11 -44
22 -18 18 -18 19 4 66 13 26 31 55 41 65 10 10 22 27 29 38 6 12 18 21 26 21
13 0 14 8 9 40 -6 35 -3 43 23 70 40 40 107 43 141 6z m1106 14 c3 -5 1 -10
-4 -10 -6 0 -11 5 -11 10 0 6 2 10 4 10 3 0 8 -4 11 -10z m-1505 -44 c0 -2 -9
-2 -20 1 -11 3 -20 9 -20 15 0 5 9 4 20 -2 11 -6 20 -12 20 -14z m355 4 c-3
-5 -10 -10 -16 -10 -5 0 -9 5 -9 10 0 6 7 10 16 10 8 0 12 -4 9 -10z m175 6
c0 -2 -13 -6 -30 -8 -16 -3 -30 -1 -30 4 0 4 14 8 30 8 17 0 30 -2 30 -4z
m-1691 -10 c-2 -2 -17 -6 -34 -10 -22 -5 -26 -4 -15 4 14 9 59 15 49 6z m28
-28 c-3 -7 -5 -2 -5 12 0 14 2 19 5 13 2 -7 2 -19 0 -25z m1688 22 c3 -5 1
-10 -4 -10 -6 0 -11 5 -11 10 0 6 2 10 4 10 3 0 8 -4 11 -10z m-178 -55 c2
-47 0 -53 -15 -49 -15 5 -15 4 1 -9 18 -15 18 -16 -2 -27 -18 -9 -21 -8 -21
12 0 13 7 34 16 47 16 22 16 23 -4 12 -18 -9 -23 -8 -32 8 -13 26 -13 31 5 31
8 0 15 -5 15 -11 0 -16 25 -5 26 12 3 48 9 36 11 -26z m-695 25 c16 -15 18
-20 7 -20 -16 0 -39 19 -39 32 0 13 9 9 32 -12z m409 -4 c25 -6 56 -18 69 -27
22 -15 23 -16 6 -42 -21 -31 -94 -74 -148 -86 -46 -11 -48 -7 -8 14 17 9 30
13 30 10 0 -10 78 36 100 60 23 25 23 25 4 39 -10 8 -35 18 -54 21 -19 3 -46
13 -60 21 -16 10 -18 13 -5 8 11 -4 41 -12 66 -18z m489 14 c0 -5 -5 -10 -11
-10 -5 0 -7 5 -4 10 3 6 8 10 11 10 2 0 4 -4 4 -10z m1027 -27 c-3 -10 -5 -4
-5 12 0 17 2 24 5 18 2 -7 2 -21 0 -30z m-1307 -23 c-13 -8 -12 -10 3 -10 15
0 16 -2 5 -14 -15 -16 -22 -8 -33 43 l-7 34 23 -22 c20 -19 21 -23 9 -31z
m146 24 c-4 -9 -9 -15 -11 -12 -3 3 -3 13 1 22 4 9 9 15 11 12 3 -3 3 -13 -1
-22z m808 11 c-7 -17 -20 -20 -28 -6 -4 5 0 12 6 14 23 9 28 7 22 -8z m-444
-5 c0 -5 -5 -10 -11 -10 -5 0 -7 5 -4 10 3 6 8 10 11 10 2 0 4 -4 4 -10z m400
2 c0 -5 -7 -9 -15 -9 -8 0 -12 4 -9 9 3 4 9 8 15 8 5 0 9 -4 9 -8z m-370 -12
c0 -5 -5 -10 -11 -10 -5 0 -7 5 -4 10 3 6 8 10 11 10 2 0 4 -4 4 -10z m318 3
c-10 -2 -28 -2 -40 0 -13 2 -5 4 17 4 22 1 32 -1 23 -4z m-1567 -13 c10 -6 19
-16 19 -23 0 -9 -2 -9 -8 0 -4 7 -19 16 -32 22 -14 5 -19 10 -12 10 7 1 22 -4
33 -9z m122 -36 c27 -32 46 -84 30 -84 -5 0 -16 14 -24 32 -20 46 -39 48 -39
4 0 -19 -5 -38 -10 -41 -6 -4 -8 -10 -5 -15 3 -4 -2 -10 -10 -14 -8 -3 -15 -1
-15 4 0 5 -8 11 -17 13 -14 4 -12 5 5 6 30 1 46 43 38 99 -7 49 4 48 47 -4z
m860 26 c-3 -10 -11 -24 -18 -30 -11 -10 -12 -6 -2 19 13 34 28 43 20 11z
m-1056 -12 c-3 -8 -6 -5 -6 6 -1 11 2 17 5 13 3 -3 4 -12 1 -19z m933 -4 c0
-8 -5 -12 -10 -9 -6 4 -8 11 -5 16 9 14 15 11 15 -7z m90 4 c0 -5 -9 -8 -20
-8 -11 0 -20 -4 -20 -10 0 -5 3 -10 8 -10 4 0 13 -18 20 -41 10 -34 10 -43 -2
-61 -14 -19 -13 -23 2 -35 9 -8 11 -11 3 -7 -11 5 -13 3 -8 -9 3 -10 2 -17 -4
-17 -6 0 -7 -5 -3 -12 5 -7 3 -8 -5 -3 -7 4 -11 16 -8 26 3 10 -1 23 -9 30
-11 9 -10 14 8 28 17 14 19 21 9 39 -6 11 -11 29 -11 40 0 11 -7 25 -15 32
-24 20 -18 29 20 27 19 -1 35 -5 35 -9z m-143 -30 c-3 -8 -6 -5 -6 6 -1 11 2
17 5 13 3 -3 4 -12 1 -19z m828 -10 c7 -7 2 -8 -15 -3 -14 4 -29 12 -35 17 -7
7 -2 8 15 3 14 -4 30 -12 35 -17z m-915 -11 c22 -4 21 -5 -4 -4 -17 1 -31 9
-33 17 -3 10 -2 11 4 4 4 -7 19 -14 33 -17z m166 2 c19 -21 19 -21 -9 -8 -15
7 -27 16 -27 21 0 14 16 9 36 -13z m-977 -61 c1 -25 5 -28 34 -28 30 -1 31 -1
13 -15 -11 -8 -16 -18 -12 -22 4 -4 10 -2 14 4 4 6 20 15 36 19 21 5 27 4 22
-5 -4 -6 -1 -11 8 -11 8 0 18 5 21 11 4 6 13 8 21 5 8 -3 17 1 20 9 8 20 24
19 54 -5 l25 -20 -32 12 c-28 10 -35 9 -53 -7 -13 -11 -38 -20 -63 -20 -23 -1
-56 -5 -74 -9 -29 -7 -31 -5 -26 15 4 13 0 26 -8 33 -8 6 -15 32 -16 61 -1 38
0 44 7 25 4 -14 8 -37 9 -52z m108 50 c-3 -8 -6 -5 -6 6 -1 11 2 17 5 13 3 -3
4 -12 1 -19z m1573 -3 c0 -8 -4 -15 -9 -15 -5 0 -11 7 -15 15 -3 9 0 15 9 15
8 0 15 -7 15 -15z m-1639 -32 c13 -16 12 -17 -3 -4 -10 7 -18 15 -18 17 0 8 8
3 21 -13z m932 -6 c17 4 13 -3 -18 -30 -40 -35 -40 -35 -21 -56 19 -21 19 -21
-10 -21 -16 -1 -55 -3 -86 -7 -54 -5 -58 -4 -58 16 0 15 6 21 23 20 21 0 21
-1 2 -9 -19 -8 -8 -9 91 -1 15 1 24 70 11 78 -6 3 -8 2 -5 -3 3 -5 2 -18 -3
-29 -6 -16 -8 -12 -8 18 -1 43 19 51 37 15 11 -21 12 -21 11 -3 -2 29 3 42 8
24 3 -11 11 -15 26 -12z m-504 -13 c2 -2 -10 -4 -27 -4 -32 0 -50 -14 -32 -25
5 -3 10 -14 10 -23 -1 -12 -9 -7 -30 17 l-29 34 -10 -27 c-6 -14 -23 -31 -37
-36 -32 -13 -33 -12 -23 20 4 14 7 19 8 13 1 -7 6 -13 12 -13 6 0 9 6 6 13 -2
6 5 20 16 29 16 14 31 17 76 12 31 -4 58 -8 60 -10z m42 -41 c8 -22 7 -30 -7
-40 -28 -20 -42 -15 -49 17 -8 36 0 50 26 50 12 0 23 -10 30 -27z m619 17 c0
-5 -7 -7 -15 -4 -8 4 -15 8 -15 10 0 2 7 4 15 4 8 0 15 -4 15 -10z m-164 -48
c-4 -3 -11 0 -16 8 -15 24 -11 33 6 15 9 -9 13 -19 10 -23z m292 1 c-10 -2
-28 -2 -40 0 -13 2 -5 4 17 4 22 1 32 -1 23 -4z m-845 -14 c7 0 3 -4 -8 -9
-27 -12 -83 -12 -90 -1 -5 10 49 20 73 14 8 -1 19 -3 25 -4z m570 -6 c3 -5 -1
-14 -9 -21 -12 -11 -14 -9 -14 8 0 20 14 27 23 13z m433 -31 c-4 -3 -14 2 -24
12 -16 18 -16 18 6 6 13 -6 21 -14 18 -18z m-2227 -14 c0 -13 -3 -17 -6 -9 -5
11 -7 11 -14 0 -7 -11 -9 -11 -9 3 0 14 7 21 28 27 1 1 2 -9 1 -21z m1672 13
c6 10 9 4 9 -18 0 -21 -5 -33 -13 -33 -9 0 -14 12 -14 33 0 17 2 26 5 18 4
-11 6 -11 13 0z m1179 -6 c0 -11 -31 -11 -39 -1 -9 10 -6 12 14 8 14 -2 25 -6
25 -7z m-1094 -8 c4 -4 -9 -7 -30 -7 -20 0 -35 4 -32 8 6 10 52 9 62 -1z
m-1804 -167 c-14 -13 -15 -13 -5 0 8 10 8 30 3 60 -5 25 -9 56 -8 70 0 14 6
-6 13 -45 12 -62 11 -72 -3 -85z m1671 143 c-7 -2 -21 -2 -30 0 -10 3 -4 5 12
5 17 0 24 -2 18 -5z m627 3 c0 -3 -4 -8 -10 -11 -5 -3 -10 -1 -10 4 0 6 5 11
10 11 6 0 10 -2 10 -4z m466 -14 c-10 -2 -22 0 -28 6 -6 6 0 7 19 4 21 -5 23
-7 9 -10z m-973 -9 c-7 -2 -19 -2 -25 0 -7 3 -2 5 12 5 14 0 19 -2 13 -5z
m312 -23 c3 -5 1 -10 -4 -10 -6 0 -11 5 -11 10 0 6 2 10 4 10 3 0 8 -4 11 -10z
m135 6 c0 -3 -4 -8 -10 -11 -5 -3 -10 -1 -10 4 0 6 5 11 10 11 6 0 10 -2 10
-4z m-2160 -36 c0 -16 -2 -30 -4 -30 -2 0 -6 14 -8 30 -3 17 -1 30 4 30 4 0 8
-13 8 -30z m2825 -18 c-3 -3 -11 0 -18 7 -9 10 -8 11 6 5 10 -3 15 -9 12 -12z
m-38 2 c-3 -3 -12 -4 -19 -1 -8 3 -5 6 6 6 11 1 17 -2 13 -5z m-2793 -45 c-8
-14 -21 -11 -21 5 0 8 6 12 14 9 7 -3 10 -9 7 -14z m86 -20 c0 -5 -4 -9 -8 -9
-5 0 -9 7 -9 15 0 8 4 12 9 9 4 -3 8 -9 8 -15z m2510 -44 c0 -8 -2 -15 -4 -15
-2 0 -6 7 -10 15 -3 8 -1 15 4 15 6 0 10 -7 10 -15z m187 -11 c-3 -3 -12 -4
-19 -1 -8 3 -5 6 6 6 11 1 17 -2 13 -5z m-2742 -14 c-3 -5 -11 -10 -16 -10 -6
0 -7 5 -4 10 3 6 11 10 16 10 6 0 7 -4 4 -10z m2776 -27 c13 -15 12 -15 -8 -4
-24 12 -29 21 -14 21 5 0 15 -7 22 -17z"/>
<path d="M260 1539 c0 -5 -5 -7 -12 -3 -7 4 -8 3 -4 -4 5 -9 13 -9 27 -2 25
14 24 6 -2 -19 -24 -22 -22 -54 5 -59 13 -3 16 0 10 10 -6 10 -4 10 9 -1 20
-16 22 -15 31 17 6 17 2 24 -16 31 -17 7 -19 10 -5 10 31 2 19 31 -13 31 -16
0 -30 -5 -30 -11z"/>
<path d="M255 1430 c-3 -6 0 -13 9 -16 21 -8 69 -1 73 12 5 14 -74 17 -82 4z"/>
<path d="M2634 1566 c-17 -8 -34 -22 -38 -32 -6 -16 -5 -16 14 1 12 11 34 25
48 32 15 6 23 12 17 12 -5 0 -24 -6 -41 -13z"/>
<path d="M2661 1555 c-19 -6 -40 -21 -48 -31 -16 -22 -14 -76 4 -81 8 -3 10 6
6 30 -3 24 0 38 12 50 21 21 42 23 25 2 -7 -8 -8 -15 -2 -15 5 0 15 7 22 15
19 22 40 0 40 -41 0 -39 -13 -49 -56 -45 -18 1 -35 -3 -39 -9 -5 -8 -11 -7
-23 2 -12 9 -11 6 2 -10 20 -23 32 -30 21 -12 -4 7 8 8 35 4 38 -6 44 -4 66
22 30 35 26 68 -14 103 -18 16 -21 22 -9 18 10 -4 21 -7 23 -7 3 0 14 -19 25
-42 16 -35 19 -37 14 -13 -7 32 -42 76 -59 74 -6 -1 -26 -7 -45 -14z"/>
<path d="M2690 1514 c0 -5 -10 -10 -21 -11 -52 -4 -51 -52 1 -51 23 1 32 7 36
25 4 14 1 30 -5 36 -6 6 -11 7 -11 1z"/>
<path d="M2582 1480 c0 -19 2 -27 5 -17 2 9 2 25 0 35 -3 9 -5 1 -5 -18z"/>
<path d="M2750 1454 c0 -24 -42 -54 -78 -55 -25 -1 -29 -3 -13 -6 12 -3 34 -2
47 1 25 7 61 52 50 63 -3 3 -6 2 -6 -3z"/>
<path d="M682 1491 c5 -46 57 -37 58 10 0 11 -9 16 -31 16 -26 0 -30 -3 -27
-26z"/>
<path d="M450 1497 c0 -7 6 -22 14 -32 12 -16 16 -17 30 -6 9 7 16 22 16 32 0
14 -7 19 -30 19 -18 0 -30 -5 -30 -13z"/>
<path d="M530 1491 c0 -10 7 -25 16 -32 14 -11 18 -10 30 6 22 30 17 45 -16
45 -23 0 -30 -5 -30 -19z"/>
<path d="M604 1499 c-3 -6 3 -21 15 -33 19 -18 23 -19 31 -6 18 28 12 50 -14
50 -14 0 -28 -5 -32 -11z"/>
<path d="M2440 1515 c0 -8 5 -15 10 -15 6 0 10 7 10 15 0 8 -4 15 -10 15 -5 0
-10 -7 -10 -15z"/>
<path d="M2471 1513 c0 -13 2 -14 6 -4 4 10 7 10 13 1 5 -8 9 -7 13 4 5 11 1
16 -13 16 -13 0 -20 -6 -19 -17z"/>
<path d="M1033 1353 c-18 -2 -33 -9 -33 -14 0 -13 180 -1 195 12 9 9 -97 10
-162 2z"/>
<path d="M2192 1450 c0 -14 2 -19 5 -12 2 6 2 18 0 25 -3 6 -5 1 -5 -13z"/>
<path d="M2212 1456 c1 -10 8 -17 13 -17 15 1 12 24 -3 29 -9 3 -13 -2 -10
-12z"/>
<path d="M2431 1454 c0 -11 3 -14 6 -6 3 7 2 16 -1 19 -3 4 -6 -2 -5 -13z"/>
<path d="M717 1361 c-4 -17 -3 -21 5 -13 5 5 8 16 6 23 -3 8 -7 3 -11 -10z"/>
<path d="M870 1104 c0 -8 5 -12 10 -9 6 3 10 10 10 16 0 5 -4 9 -10 9 -5 0
-10 -7 -10 -16z"/>
<path d="M900 1110 c0 -5 5 -10 10 -10 6 0 10 5 10 10 0 6 -4 10 -10 10 -5 0
-10 -4 -10 -10z"/>
<path d="M839 1083 c-1 -2 -2 -9 -3 -15 0 -7 -14 -14 -31 -16 -65 -5 -95 -13
-89 -23 3 -6 -3 -13 -15 -16 -12 -3 -21 -9 -21 -14 0 -11 23 -12 36 -1 5 5 20
6 34 1 24 -7 24 -7 3 -8 -20 -1 -23 -6 -23 -45 0 -30 -5 -46 -15 -50 -8 -3
-15 -13 -15 -23 0 -15 2 -16 10 -3 5 8 10 11 10 7 0 -4 10 -2 23 5 12 7 27 13
32 13 16 0 72 55 57 55 -6 0 -12 5 -12 11 0 6 7 9 15 5 9 -3 15 0 15 9 0 19
-10 19 -38 -1 -23 -16 -23 -16 -20 17 2 26 8 35 26 37 12 2 22 -1 22 -7 0 -6
8 -11 17 -11 9 0 13 3 10 7 -8 7 11 33 24 33 5 0 9 -7 9 -15 0 -18 20 -20 20
-2 1 8 4 7 13 -3 7 -8 17 -16 22 -17 6 -1 19 -5 30 -9 18 -7 18 -6 7 9 -8 9
-22 19 -33 22 -21 7 -27 35 -7 35 6 0 9 3 5 6 -5 6 -116 12 -118 7z m-64 -50
c-11 -3 -23 -10 -27 -17 -5 -7 -8 -7 -8 0 0 16 11 24 34 23 20 -1 20 -1 1 -6z
m9 -97 c-10 -26 -23 -18 -20 12 5 38 6 39 16 20 6 -9 7 -23 4 -32z"/>
<path d="M808 1003 c7 -3 16 -2 19 1 4 3 -2 6 -13 5 -11 0 -14 -3 -6 -6z"/>
<path d="M813 905 c-18 -20 -16 -25 12 -25 27 0 28 1 19 24 -7 19 -15 20 -31
1z"/>
<path d="M736 864 c-19 -19 -20 -24 -3 -24 7 0 18 9 25 20 15 24 0 27 -22 4z"/>
<path d="M1174 803 c3 -6 1 -13 -6 -15 -7 -3 -9 -11 -4 -24 8 -18 9 -18 19 4
8 17 7 26 -3 35 -9 8 -11 8 -6 0z"/>
<path d="M1060 1193 c-19 -3 -39 -9 -45 -15 -13 -13 116 0 130 13 9 9 -17 10
-85 2z"/>
<path d="M1063 1161 c-54 -9 -67 -21 -22 -21 51 0 109 11 109 21 0 10 -25 10
-87 0z"/>
<path d="M2327 1073 c-12 -12 15 -33 42 -32 16 1 19 3 9 6 -10 2 -15 10 -11
19 5 14 -27 21 -40 7z"/>
<path d="M2315 1040 c-10 -16 4 -80 16 -80 6 0 8 9 4 20 -3 11 -2 20 3 20 11
0 4 38 -9 45 -4 3 -11 0 -14 -5z"/>
<path d="M2372 796 c1 -32 3 -33 25 -23 29 13 32 52 3 44 -11 -3 -18 -1 -14 4
3 5 1 9 -5 9 -6 0 -10 -15 -9 -34z"/>
<path d="M1340 684 c0 -8 4 -13 9 -9 5 3 12 1 16 -5 3 -5 1 -10 -4 -10 -6 0
-11 -5 -11 -10 0 -7 7 -7 20 0 16 9 18 15 10 30 -13 24 -40 27 -40 4z"/>
<path d="M1758 1670 c-8 -29 -13 -478 -5 -486 6 -6 20 406 15 466 -2 38 -4 41
-10 20z"/>
<path d="M2028 1683 c23 -2 59 -2 80 0 20 2 1 4 -43 4 -44 0 -61 -2 -37 -4z"/>
<path d="M2326 1524 c10 -8 14 -13 7 -10 -6 4 -14 2 -18 -4 -7 -11 17 -14 28
-4 10 10 -4 34 -21 34 -13 0 -12 -3 4 -16z"/>
<path d="M2157 1524 c-8 -8 1 -24 14 -24 5 0 9 7 9 15 0 15 -12 20 -23 9z"/>
<path d="M2193 1515 c0 -8 7 -15 15 -15 7 0 12 5 10 12 -6 18 -25 21 -25 3z"/>
<path d="M2230 1515 c0 -8 5 -15 10 -15 6 0 10 7 10 15 0 8 -4 15 -10 15 -5 0
-10 -7 -10 -15z"/>
<path d="M1 1227 l0 -84 47 8 c26 4 55 8 65 8 12 1 17 9 17 32 0 17 -4 28 -10
24 -6 -3 -7 1 -4 10 4 8 3 31 0 50 -6 31 -10 35 -39 35 -18 0 -39 -6 -46 -12
-11 -10 -13 -10 -7 0 4 7 1 12 -8 12 -12 0 -15 -16 -15 -83z"/>
<path d="M1475 1247 c-8 -12 -16 -34 -17 -47 -3 -22 1 -25 27 -25 17 0 29 -5
28 -11 -1 -6 10 -9 26 -6 24 3 27 8 23 28 -2 14 -10 23 -16 21 -39 -15 -55
-17 -61 -7 -3 5 -1 10 5 10 6 0 9 4 5 10 -3 5 9 7 30 5 24 -3 35 -1 35 8 0 40
-61 50 -85 14z"/>
<path d="M1448 1135 c-10 -13 -18 -31 -18 -39 0 -20 56 -30 101 -18 29 7 34
13 32 37 -3 37 -8 40 -38 21 -32 -21 -32 -35 0 -28 14 2 25 0 25 -7 0 -5 -6
-8 -14 -5 -8 3 -17 1 -21 -5 -13 -23 -25 -9 -25 29 0 46 -16 52 -42 15z m18
-27 c-11 -15 -16 -18 -16 -7 0 16 21 42 28 34 2 -2 -3 -14 -12 -27z"/>
<path d="M1680 1134 c-16 -41 -13 -46 25 -41 19 3 35 1 35 -4 0 -9 -28 -13
-62 -10 -10 1 -18 -3 -18 -8 0 -10 12 -15 30 -13 3 0 6 -11 5 -25 0 -14 5 -28
12 -30 8 -3 10 6 6 30 -5 31 -2 35 21 41 27 7 29 14 17 56 l-7 25 -12 -22 c-8
-14 -21 -23 -35 -22 -20 1 -20 2 -2 6 35 9 42 43 9 43 -8 0 -19 -12 -24 -26z"/>
<path d="M2850 893 c0 -4 5 -15 10 -23 8 -13 10 -13 10 2 0 9 -4 20 -10 23 -5
3 -10 3 -10 -2z"/>
<path d="M2976 704 c-10 -26 -7 -42 9 -48 12 -4 15 3 15 29 0 36 -13 47 -24
19z"/>
<path d="M2987 573 c-11 -10 -8 -103 3 -103 6 0 9 24 9 55 -2 58 -2 59 -12 48z"/>
<path d="M1145 520 c-224 -30 -431 -84 -1062 -276 l-83 -25 0 -63 0 -63 28 5
c15 2 32 8 37 12 6 4 48 19 95 34 217 68 405 132 408 139 2 4 14 7 26 7 22 0
169 49 195 65 8 4 26 9 40 11 14 1 51 11 81 22 30 11 78 23 105 26 28 3 66 11
85 17 19 5 55 10 80 10 25 0 40 3 33 7 -15 10 302 8 382 -2 105 -13 218 -36
275 -56 72 -24 50 -25 -31 -1 -122 36 -217 46 -439 46 -307 -1 -330 -6 -1055
-248 l-340 -113 -3 -35 -3 -36 416 -1 415 -2 101 41 c168 68 273 91 440 96 81
3 153 1 162 -3 9 -6 -37 -8 -116 -7 -72 1 -136 -1 -141 -6 -6 -4 -27 -9 -47
-9 -32 -1 -81 -13 -219 -54 -19 -6 -48 -17 -65 -26 -16 -9 -36 -17 -43 -18 -8
-1 -16 -5 -19 -8 -4 -3 472 -6 1056 -5 l1062 0 -3 46 -3 45 -360 140 c-532
206 -601 228 -830 270 -126 23 -537 34 -660 18z m258 -37 c-7 -2 -21 -2 -30 0
-10 3 -4 5 12 5 17 0 24 -2 18 -5z m692 -91 c-3 -3 -11 0 -18 7 -9 10 -8 11 6
5 10 -3 15 -9 12 -12z m-105 -42 c45 -24 28 -24 -25 0 -22 10 -33 19 -25 19 8
0 31 -8 50 -19z m145 0 c3 -6 -1 -7 -9 -4 -18 7 -21 14 -7 14 6 0 13 -4 16
-10z m-1070 -10 c-3 -5 -12 -10 -18 -10 -7 0 -6 4 3 10 19 12 23 12 15 0z
m1005 -15 c7 -8 9 -15 6 -15 -4 0 -14 7 -22 15 -9 8 -11 15 -6 15 5 0 15 -7
22 -15z m245 -53 c-3 -3 -11 0 -18 7 -9 10 -8 11 6 5 10 -3 15 -9 12 -12z
m-1285 4 c0 -3 -4 -8 -10 -11 -5 -3 -10 -1 -10 4 0 6 5 11 10 11 6 0 10 -2 10
-4z m-603 -32 c-3 -3 -12 -4 -19 -1 -8 3 -5 6 6 6 11 1 17 -2 13 -5z m1880
-25 c24 -10 49 -19 57 -19 8 0 16 -3 18 -8 3 -7 155 -74 198 -87 14 -4 30 -11
35 -14 6 -4 30 -14 55 -21 25 -8 56 -25 70 -39 14 -13 18 -22 10 -19 -36 14
-342 148 -413 182 -42 20 -82 36 -87 36 -5 0 -12 4 -15 10 -7 11 12 6 72 -21z
m78 21 c3 -6 -1 -7 -9 -4 -18 7 -21 14 -7 14 6 0 13 -4 16 -10z m-746 -122
c28 -6 51 -15 51 -19 0 -6 -89 12 -125 26 -24 8 28 4 74 -7z m129 -36 c66 -23
80 -37 21 -19 -41 13 -91 36 -79 37 3 0 29 -8 58 -18z m97 -42 c3 -6 -1 -7 -9
-4 -18 7 -21 14 -7 14 6 0 13 -4 16 -10z"/>
</g>
</svg>
